<svg height="50pt" viewBox="0 0 512 512" width="50pt" xmlns="http://www.w3.org/2000/svg"><path d="m352.398438 241h-192.796876c-8.285156 0-15 6.714844-15 15 0 61.425781 49.972657 111.398438 111.398438 111.398438s111.398438-49.972657 111.398438-111.398438c0-8.285156-6.714844-15-15-15zm-96.398438 96.398438c-39.761719 0-72.957031-28.65625-80.015625-66.398438h160.03125c-7.058594 37.742188-40.253906 66.398438-80.015625 66.398438zm0 0"/><path d="m464.867188 144.601562h-17.132813v-41.234374c0-56.996094-46.371094-103.367188-103.367187-103.367188h-176.734376c-56.996093 0-103.367187 46.371094-103.367187 103.367188v41.234374h-17.132813c-25.484374 0-47.132812 20.554688-47.132812 47.132813v12.335937c0 45.929688 43.039062 64.125 64.265625 66.449219v44.316407c0 18.46875 9.195313 35.628906 24.59375 45.894531l39.675781 26.457031v109.8125c0 8.285156 6.714844 15 15 15h224.933594c8.285156 0 15-6.714844 15-15v-109.808594l39.675781-26.457031c15.394531-10.269531 24.589844-27.429687 24.589844-45.898437v-44.3125c21.84375-2.394532 64.265625-21.066407 64.265625-66.453126v-12.335937c0-26.578125-21.648438-47.132813-47.132812-47.132813zm-297.234376-114.601562h176.734376c40.453124 0 73.367187 32.910156 73.367187 73.367188v3.953124l-22.59375-22.59375c-2.359375-2.359374-5.4375-3.863281-8.746094-4.277343l-128.535156-16.066407c-8.953125-1.121093-16.859375 5.871094-16.859375 14.882813v15.144531l-111.671875-13.960937c-4.585937-.578125-9.195313 1.003906-12.46875 4.277343l-22.59375 22.59375v-3.953124c0-40.457032 32.914063-73.367188 73.367187-73.367188zm-137.632812 174.070312v-12.335937c0-9.59375 7.777344-17.136719 17.132812-17.136719h17.132813v65.636719c-15.042969-2.746094-34.265625-14.921875-34.265625-36.164063zm323.46875 277.929688h-194.9375v-74.804688l30.261719 20.191407c19.960937 13.308593 43.199219 20.347656 67.207031 20.347656s47.246094-7.039063 67.214844-20.351563l30.253906-20.1875zm64.265625-167.164062c0 8.417968-4.203125 16.246093-11.238281 20.941406l-99.933594 66.648437c-15.015625 10.015625-32.5 15.308594-50.5625 15.308594-18.066406 0-35.546875-5.292969-50.554688-15.300781l-99.941406-66.660156c-7.035156-4.691407-11.238281-12.519532-11.238281-20.9375v-165.089844l38.621094-38.617188 121.253906 15.15625c8.929687 1.121094 16.859375-5.859375 16.859375-14.886718v-15.140626l106.5625 13.320313 40.167969 40.167969v165.089844zm64.265625-110.765626c0 21.707032-19.96875 33.554688-34.265625 36.164063v-65.632813h17.132813c9.351562 0 17.132812 7.535157 17.132812 17.132813zm0 0"/><path d="m201.097656 189.085938c7.375 3.6875 16.402344.726562 20.121094-6.714844 3.703125-7.410156.695312-16.421875-6.714844-20.125-24.320312-12.144532-53.355468-12.144532-77.675781 0-7.410156 3.703125-10.417969 12.714844-6.714844 20.125s12.714844 10.414062 20.125 6.714844c15.921875-7.957032 34.933594-7.957032 50.859375 0zm0 0"/><path d="m375.171875 162.246094c-24.316406-12.144532-53.355469-12.144532-77.675781 0-7.410156 3.703125-10.417969 12.714844-6.714844 20.125s12.710938 10.414062 20.121094 6.714844c15.925781-7.957032 34.9375-7.957032 50.859375 0 7.378906 3.6875 16.402343.726562 20.125-6.714844 3.703125-7.410156.695312-16.421875-6.714844-20.125zm0 0"/></svg>